<svg xmlns="http://www.w3.org/2000/svg" viewBox="0 0 360 120">
  <defs>
    <linearGradient id="gold" x1="0" y1="0" x2="1" y2="1">
      <stop offset="0%" stop-color="#f4d06f" />
      <stop offset="100%" stop-color="#c89b3d" />
    </linearGradient>
    <filter id="shadow" x="-20%" y="-20%" width="140%" height="140%">
      <feDropShadow dx="0" dy="2" stdDeviation="2" flood-color="#382300" flood-opacity="0.3" />
    </filter>
  </defs>
  <g filter="url(#shadow)">
    <path d="M52 24l24-14 24 14v28l-24 14-24-14V24z" fill="url(#gold)" />
    <path d="M104 40l24-14 24 14v28l-24 14-24-14V40z" fill="url(#gold)" />
    <path d="M78 68l24-14 24 14v28l-24 14-24-14V68z" fill="url(#gold)" />
    <path d="M178 60h-36l-12-28-24 14-24-14-24 14-24-14-12 28h-36v36h180V60z" fill="none" stroke="url(#gold)" stroke-width="8" stroke-linejoin="round" />
    <path d="M140 84c0-12 10-22 22-22s22 10 22 22-22 32-22 32-22-20-22-32z" fill="url(#gold)" />
  </g>
  <text x="190" y="52" fill="#f4d06f" font-family="Inter, Arial, sans-serif" font-size="24" font-weight="700">Honey Homes</text>
  <text x="190" y="80" fill="#f4d06f" font-family="Inter, Arial, sans-serif" font-size="14">&amp; Apartments</text>
</svg>
